<?xml version="1.0" standalone="no"?>
<!DOCTYPE svg PUBLIC "-//W3C//DTD SVG 1.1//EN" "http://www.w3.org/Graphics/SVG/1.1/DTD/svg11.dtd" >
<svg xmlns="http://www.w3.org/2000/svg">
<metadata></metadata>
<defs>
<font id="fifa_welcomeregular" horiz-adv-x="1014" >
<font-face units-per-em="2048" ascent="1638" descent="-410" />
<missing-glyph horiz-adv-x="508" />
<glyph horiz-adv-x="2048" />
<glyph horiz-adv-x="2048" />
<glyph unicode="&#xd;" horiz-adv-x="508" />
<glyph unicode=" "  horiz-adv-x="508" />
<glyph unicode="&#x09;" horiz-adv-x="508" />
<glyph unicode="&#xa0;" horiz-adv-x="508" />
<glyph unicode="!" horiz-adv-x="402" d="M100 245v709q0 115 120 174q37 14 81 14l2 -2v-710q0 -115 -120 -173q-37 -15 -81 -15zM102 78v25q0 63 74 90l27 3q64 0 93 -79v-31q-21 -86 -96 -86h-2q-68 0 -96 78z" />
<glyph unicode="&#x22;" horiz-adv-x="693" d="M93 717v232q0 114 119 172q37 15 81 15l2 -2v-232q0 -114 -119 -172q-37 -15 -81 -15zM385 717v232q0 114 119 172q37 15 81 15l2 -2v-232q0 -114 -119 -172q-37 -15 -81 -15z" />
<glyph unicode="#" horiz-adv-x="1363" d="M100 489l2 2h290v141h-109q-112 0 -169 116q-14 36 -14 78l2 3h290v130q0 112 116 169q36 14 79 14l2 -2v-311h159v130q0 112 116 169q36 14 79 14l2 -2v-311h114q112 0 169 -117q14 -35 14 -78l-2 -2h-295v-141h114q112 0 169 -116q14 -36 14 -78l-2 -3h-295v-111 q0 -112 -116 -169q-36 -14 -78 -14l-3 2v292h-159v-111q0 -112 -116 -169q-36 -14 -79 -14l-2 2v292h-109q-112 0 -169 117q-14 36 -14 78zM589 491h159v141h-159v-141z" />
<glyph unicode="$" horiz-adv-x="1102" d="M100 793q0 120 121 214q74 43 141 43h139q61 91 166 91l3 -2v-89h346q4 0 4 -7q0 -122 -123 -173q-28 -9 -61 -9h-166v-175h68q196 0 269 -185q18 -46 18 -111q0 -120 -121 -215q-74 -43 -141 -43h-100q0 -41 -75 -105q-50 -27 -105 -27l-3 2v130h-371q-4 0 -4 7 q0 123 123 173q28 9 61 9h191v176h-68q-218 0 -294 180q-18 57 -18 116zM289 777q0 -81 94 -91h97v175h-97q-71 0 -92 -68zM670 321h72q71 0 92 69l2 16q0 81 -94 91h-72v-176z" />
<glyph unicode="%" horiz-adv-x="1430" d="M100 113v3q0 25 54 69q926 932 938 932q51 24 80 24h33q74 0 134 -78l3 -12v-3q0 -24 -54 -68q-926 -932 -938 -932q-51 -24 -80 -24h-33q-74 0 -134 77zM115 905q0 145 158 212l62 9q146 0 212 -158l9 -63q0 -146 -158 -211l-63 -9q-146 0 -211 158zM244 905 q19 -92 92 -92q92 18 92 92q-19 92 -92 92q-92 -21 -92 -92zM857 220q0 145 157 212l63 9q146 0 211 -158l9 -63q0 -146 -158 -211l-62 -9q-146 0 -212 158zM989 215q19 -93 93 -93q93 18 93 93q-19 94 -93 94q-93 -21 -93 -94z" />
<glyph unicode="&#x26;" horiz-adv-x="1400" d="M100 372q0 139 134 257q-48 66 -48 189q0 151 151 269q94 55 178 55h704q5 0 5 -9q0 -157 -160 -220q-30 -9 -60 -9h-463q-90 0 -115 -86l-3 -20q0 -101 118 -114h389q271 0 369 -215q17 -65 17 -100q0 -248 -226 -343q-74 -26 -166 -26h-432q-274 0 -369 226 q-23 72 -23 146zM337 352q0 -102 118 -115h506q107 0 118 121q0 19 -18 48l3 9q-41 43 -97 43h-512q-89 0 -115 -86z" />
<glyph unicode="'" horiz-adv-x="346" d="M63 700v241q0 119 113 180q34 15 76 15l2 -3v-240q0 -120 -113 -181q-34 -15 -76 -15z" />
<glyph unicode="(" horiz-adv-x="402" d="M100 182v775q0 114 121 170q35 12 80 12h19l5 -5v-184q-28 -15 -28 -36v-689q0 -21 28 -36v-184l-5 -5h-19q-145 0 -194 133q-7 24 -7 49z" />
<glyph unicode=")" horiz-adv-x="438" d="M100 5v184q28 15 28 36v689q0 21 -28 36v184l5 5h19q145 0 194 -132q7 -25 7 -50v-775q0 -114 -121 -170q-35 -12 -80 -12h-19z" />
<glyph unicode="*" horiz-adv-x="744" d="M140 804q7 6 115 67v1q-50 27 -65 40q-22 24 -26 53v3h1l-1 1v4q0 27 14 47q8 -2 130 -73l5 -2v72q0 52 54 78q16 7 36 7l1 -2v-142q74 45 89 45l14 1q50 0 77 -48l-146 -84v-1q65 -35 82 -49q23 -24 27 -53v-3h-1l1 -1v-4q0 -27 -15 -49h-1l-127 74v-62q0 -51 -54 -77 q-16 -7 -36 -7l-1 1v158h-1l-63 -36l-2 1q0 -5 -34 -8q-29 0 -61 29q-12 15 -12 19z" />
<glyph unicode="+" horiz-adv-x="1040" d="M96 682l2 2h330v167q0 101 105 152q33 13 71 13l2 -2v-330h161q101 0 152 -105q13 -33 13 -71l-2 -2h-324v-161q0 -101 -105 -152q-32 -13 -71 -13l-2 2v324h-167q-101 0 -152 105q-13 32 -13 71z" />
<glyph unicode="," horiz-adv-x="524" d="M114 28q0 139 72 212q81 88 208 88l4 -4v-124q0 -140 -72 -212q-81 -88 -208 -88l-4 4v124z" />
<glyph unicode="-" horiz-adv-x="781" d="M100 548l1 2h484q73 0 110 -105q9 -32 9 -71l-1 -2h-484q-73 0 -110 105q-9 32 -9 71z" />
<glyph unicode="." horiz-adv-x="496" d="M110 144q0 90 100 132l44 8q91 0 132 -100q8 -16 8 -44q0 -109 -128 -140h-16q-117 0 -140 144z" />
<glyph unicode="/" horiz-adv-x="660" d="M-30 114v3q0 25 31 69q531 936 538 936q29 24 46 24h18q43 0 77 -78l2 -12v-3q0 -24 -31 -68q-531 -937 -538 -937q-29 -24 -46 -24h-18q-43 0 -77 78z" />
<glyph unicode="0" horiz-adv-x="1356" d="M60 576q0 286 259 475q147 92 319 92h82q307 0 489 -265q89 -141 89 -310q0 -279 -246 -468q-152 -100 -330 -100h-86q-318 0 -503 289q-73 139 -73 287zM284 568q0 -186 176 -298q78 -46 173 -46h92q214 0 322 211q27 68 27 138q0 189 -176 300q-77 46 -178 46h-82 q-236 0 -337 -238q-17 -61 -17 -113z" />
<glyph unicode="1" horiz-adv-x="571" d="M70 1129v10l5 5h272q108 0 137 -107l5 -39v-811q0 -114 -120 -172q-36 -15 -80 -15l-2 2v940h-10q-150 0 -200 136q-7 26 -7 51z" />
<glyph unicode="2" horiz-adv-x="1293" d="M70 6v344q0 223 228 322q47 17 125 17h444q106 0 117 120q0 61 -77 93l-40 6h-566q-158 0 -220 154q-11 36 -11 80l3 2h820q175 0 287 -176q40 -78 40 -148q0 -247 -225 -342q-73 -25 -165 -25h-418q-68 0 -97 -57q-9 -19 -9 -46v-114h675q169 0 228 -153q11 -36 11 -77 l-6 -6h-1138z" />
<glyph unicode="3" horiz-adv-x="1337" d="M70 6v48q0 96 126 170q49 14 72 14h625q107 0 118 121q0 61 -78 94l-40 6h-444q-183 0 -238 123q-21 44 -21 81v17l6 5h697q107 0 118 121q0 62 -78 95l-40 5h-585q-174 0 -229 152q-9 31 -9 52v29l6 5h843q176 0 290 -177q40 -79 40 -150q0 -141 -78 -238v-3 q78 -105 78 -206q0 -248 -227 -344q-74 -26 -166 -26h-780z" />
<glyph unicode="4" horiz-adv-x="1330" d="M80 347v8q0 76 104 160q616 622 624 622q12 7 33 7h132q31 0 52 -51v-679h49q76 0 137 -96q21 -42 21 -108v-5l-5 -6h-202v-2q0 -139 -129 -187q-29 -10 -68 -10h-13l-5 5v194h-567q-125 0 -160 119zM373 435q6 -21 23 -21h391q20 0 23 26v383q-3 26 -23 26h-11 q-401 -397 -401 -404z" />
<glyph unicode="5" horiz-adv-x="1278" d="M70 9q0 153 154 216q35 11 77 11h566q89 0 114 86l3 20q0 101 -117 114h-444q-253 0 -342 244q-11 48 -11 94v345l6 5h1138l6 -5q0 -158 -154 -219q-34 -12 -85 -12h-675v-114q0 -67 60 -94q19 -8 46 -8h418q273 0 367 -225q23 -71 23 -145q0 -150 -151 -268 q-92 -54 -176 -54h-817q-6 0 -6 9z" />
<glyph unicode="6" horiz-adv-x="1308" d="M70 572q0 192 122 359q146 157 268 185q74 28 139 28h641l6 -5q0 -158 -154 -220q-34 -11 -85 -11h-368q-175 0 -227 -60q-74 -58 -74 -151v-5h518q273 0 367 -225q23 -71 23 -145q0 -150 -151 -268q-93 -54 -177 -54h-267q-343 0 -524 322q-57 127 -57 250zM338 450 q0 -141 156 -199q45 -15 145 -15h254q88 0 114 86l2 20q0 101 -116 113h-555v-5z" />
<glyph unicode="7" horiz-adv-x="1234" d="M70 81v2q0 23 43 57l779 781h-626q-137 0 -191 137l-5 32v49l5 5h983q77 0 129 -91q14 -33 14 -62v-5q0 -84 -116 -180q-771 -777 -784 -779q-43 -27 -78 -27h-29q-67 0 -121 70z" />
<glyph unicode="8" horiz-adv-x="1374" d="M70 373q0 139 135 258q-49 65 -49 189q0 151 152 270q93 54 178 54h387q176 0 290 -178q40 -79 40 -149q0 -120 -49 -186q135 -118 135 -261q0 -248 -227 -344q-74 -26 -166 -26h-433q-275 0 -370 227q-23 71 -23 146zM308 353q0 -102 118 -115h507q107 0 118 120 q0 62 -78 95l-40 6h-507q-90 0 -115 -86zM394 800q0 -102 118 -115h335q107 0 118 121q0 61 -78 94l-40 6h-335q-90 0 -115 -86z" />
<glyph unicode="9" horiz-adv-x="1323" d="M70 6q0 158 154 219q34 11 85 11h367q176 0 228 60q74 59 74 151v6h-518q-273 0 -367 225q-23 71 -23 145q0 149 151 267q92 54 176 54h268q343 0 524 -321q57 -127 57 -251q0 -192 -123 -358q-146 -158 -267 -186q-77 -28 -140 -28h-640zM306 803q0 -101 117 -114h555v6 q0 140 -156 199q-46 14 -146 14h-253q-89 0 -114 -85z" />
<glyph unicode=":" horiz-adv-x="501" d="M110 144q0 90 100 132l44 8q91 0 132 -100q8 -16 8 -44q0 -109 -128 -140h-16q-117 0 -140 144zM110 1024q0 90 100 132l44 8q91 0 132 -100q8 -16 8 -44q0 -109 -128 -140h-16q-117 0 -140 144z" />
<glyph unicode=";" horiz-adv-x="524" d="M110 1024q0 90 100 132l44 8q91 0 132 -100q8 -16 8 -44q0 -109 -128 -140h-16q-117 0 -140 144zM114 28q0 139 72 212q81 88 208 88l4 -4v-124q0 -140 -72 -212q-81 -88 -208 -88l-4 4v124z" />
<glyph unicode="&#x3c;" horiz-adv-x="601" d="M92 600v20q0 76 136 191l213 213q39 -54 39 -113q0 -102 -133 -210q-77 -76 -77 -91q0 -18 110 -119q100 -90 100 -182q0 -67 -42 -113q-329 330 -330 340q-16 40 -16 64z" />
<glyph unicode="=" d="M166 205v38q0 87 106 152q39 15 61 15h512l6 -5v-33q0 -93 -112 -157q-40 -15 -91 -15h-477zM166 597v38q0 87 106 151q39 15 61 15h512l6 -5v-33q0 -93 -112 -156q-40 -15 -91 -15h-477z" />
<glyph unicode="&#x3e;" horiz-adv-x="601" d="M96 317q0 100 131 208q77 75 77 89q0 18 -109 119q-99 89 -99 179q0 67 42 112q326 -326 326 -336q16 -40 16 -64v-19q0 -75 -134 -189l-212 -211q-38 53 -38 112z" />
<glyph unicode="?" horiz-adv-x="1197" d="M100 1090v24l5 5h706q148 0 242 -149q34 -66 34 -125q0 -208 -190 -288q-62 -21 -139 -21h-319v-308l-5 -5h-36q-84 0 -144 101q-15 37 -15 63v194q0 80 106 142q40 12 60 12h384q90 0 99 101q0 51 -65 79l-34 5h-490q-145 0 -192 127q-7 26 -7 43zM268 86q0 55 60 80 l27 5q54 0 79 -61q5 -9 5 -26q0 -65 -77 -84h-10q-70 0 -84 86z" />
<glyph unicode="@" horiz-adv-x="2019" />
<glyph unicode="A" horiz-adv-x="1278" d="M100 5v594q0 322 302 491q119 54 235 54q180 0 337 -115q148 -137 174 -251q26 -72 26 -131v-642l-5 -5q-148 0 -206 144q-10 32 -10 81v130h-631v-130q0 -159 -144 -214q-34 -11 -73 -11zM322 577h631v43q0 148 -129 254q-88 61 -173 61h-30q-144 0 -248 -141 q-51 -80 -51 -158v-59z" />
<glyph unicode="B" horiz-adv-x="1334" d="M100 6v1132l6 6h734q176 0 289 -178q40 -79 40 -149q0 -120 -48 -186q134 -118 134 -261q0 -249 -226 -344q-74 -26 -166 -26h-757zM287 201h628q119 0 131 156q0 80 -86 123l-45 7h-628v-286zM287 686h550q123 0 136 143q0 74 -89 113l-47 7h-550v-263z" />
<glyph unicode="C" horiz-adv-x="1352" d="M100 572q0 192 122 359q146 157 268 185q74 27 139 28h624l5 -6q0 -158 -153 -219q-34 -11 -86 -11h-347q-158 0 -270 -137q-66 -93 -66 -185v-31q0 -154 151 -265q85 -54 168 -54h364q170 0 228 -153q11 -36 11 -77l-5 -6h-572q-343 0 -524 322q-57 127 -57 250z" />
<glyph unicode="D" horiz-adv-x="1356" d="M100 6v25l3 3l-3 3v1101l6 6h572q343 0 523 -321q57 -128 57 -251q0 -192 -122 -359q-146 -157 -268 -185q-76 -28 -139 -28h-623zM306 206h376q170 0 291 148q70 101 70 200v34q0 166 -162 286q-91 59 -181 59h-394v-727z" />
<glyph unicode="E" horiz-adv-x="1367" d="M100 572q0 192 122 359q146 157 268 185q74 27 139 28h624l5 -6q0 -158 -153 -219q-34 -11 -86 -11h-347q-181 0 -293 -171q-23 -44 -23 -54h726l6 -6q0 -158 -154 -219q-34 -11 -85 -11h-490q46 -114 157 -174q74 -37 139 -37h364q170 0 228 -153q11 -36 11 -77l-5 -6 h-572q-343 0 -524 322q-57 127 -57 250z" />
<glyph unicode="F" horiz-adv-x="1043" d="M100 187v811q0 114 110 144l31 2h735l5 -5v-9q0 -117 -124 -176q-36 -12 -83 -12h-411q-61 -5 -61 -61v-229h506l5 -4v-10q0 -117 -124 -175q-36 -13 -83 -13h-304v-445q0 -5 -7 -5q-134 0 -188 136q-7 26 -7 51z" />
<glyph unicode="G" horiz-adv-x="1319" d="M0 570q0 192 123 360q146 157 268 185q74 28 139 29h625l6 -6q0 -158 -154 -220q-34 -11 -86 -11h-348q-158 0 -271 -137q-65 -94 -65 -185v-32q0 -168 176 -282q77 -34 120 -34h129q141 0 253 134q46 67 46 88h-259q-154 0 -209 134l-5 37v52l5 5h719l6 -5v-106 q0 -297 -260 -482q-143 -94 -322 -94h-103q-161 0 -339 140q-194 184 -194 430z" />
<glyph unicode="H" horiz-adv-x="1249" d="M100 2v1142q0 4 8 4q149 0 209 -134q8 -25 8 -50v-275h582v275q0 113 133 170q41 14 89 14l3 -2v-1141q0 -5 -8 -5q-149 0 -209 134q-8 25 -8 50v306h-582v-306q0 -112 -133 -170q-41 -14 -89 -14z" />
<glyph unicode="I" horiz-adv-x="519" d="M150 2v959q0 112 128 169q40 14 86 14l3 -2v-959q0 -112 -128 -169q-39 -14 -86 -14z" />
<glyph unicode="J" horiz-adv-x="973" d="M100 263v2q0 40 32 53q32 17 68 17h6q90 0 124 -89q52 -57 142 -57q104 0 145 76q8 19 8 41v633q0 142 142 192q33 9 72 9l5 -5v-798q-5 -132 -21 -148q-34 -86 -137 -141q-104 -48 -219 -48q-204 0 -322 136q-45 59 -45 127z" />
<glyph unicode="K" horiz-adv-x="1127" d="M100 2v1137q0 5 8 5q149 0 209 -134q8 -25 8 -50v-245l491 426l19 3q65 -19 65 -105q0 -80 -92 -141l-366 -324l594 -522q0 -28 -90 -38l-46 -2q-114 0 -157 59l-418 365v-253q0 -112 -133 -169q-41 -14 -89 -14z" />
<glyph unicode="L" horiz-adv-x="1076" d="M100 5v1138q0 5 8 5q140 0 196 -134q8 -25 8 -50v-765h447q151 0 204 -130q10 -30 10 -64l-5 -5h-863z" />
<glyph unicode="M" horiz-adv-x="1868" d="M100 6v525q0 266 41 324q68 157 225 239q99 50 207 50h11q177 0 324 -128l35 -35q145 163 348 163h11q249 0 406 -233q44 -72 67 -208v-697q0 -6 -9 -6q-153 0 -218 158q-12 34 -12 87v283q0 225 -29 245q-76 132 -210 132q-151 0 -225 -161q-12 -44 -12 -76v-423 q0 -173 -157 -233q-37 -12 -79 -12l-6 6v601q0 181 -88 239q-68 59 -151 59q-151 0 -225 -161q-12 -44 -12 -76v-423q0 -173 -157 -233q-37 -12 -79 -12z" />
<glyph unicode="N" horiz-adv-x="1348" d="M100 6v567q0 340 319 520q126 56 249 56q190 0 355 -121q156 -145 184 -266q28 -75 28 -138v-618l-6 -6q-156 0 -217 152q-11 34 -11 85v345q0 156 -136 268q-93 65 -183 65h-31q-153 0 -263 -150q-54 -85 -54 -166v-362q0 -168 -152 -226q-35 -11 -76 -11z" />
<glyph unicode="O" horiz-adv-x="1352" d="M99 558v26q0 233 191 416q170 144 371 144h22q241 0 425 -199q137 -171 137 -351v-41q0 -215 -174 -394q-177 -161 -376 -161h-41q-197 0 -372 151q-183 183 -183 409zM341 570q0 -176 158 -291q91 -55 189 -55q176 0 290 158q56 90 56 188q0 177 -158 291 q-92 55 -188 55q-176 0 -291 -158q-56 -91 -56 -188z" />
<glyph unicode="P" horiz-adv-x="1212" d="M100 3v1136l5 6h692q169 0 278 -170q38 -76 38 -143q0 -238 -217 -330q-71 -24 -159 -24h-412v-291q0 -80 -99 -154q-52 -33 -123 -33zM325 686h448q102 0 112 137q0 70 -74 107l-38 7h-448v-251z" />
<glyph unicode="Q" horiz-adv-x="1418" d="M109 558v26q0 233 191 416q170 144 371 144h22q241 0 425 -199q137 -171 137 -351v-41q0 -215 -174 -394q-177 -161 -376 -161h-41q-197 0 -372 151q-183 183 -183 409zM351 570q0 -176 158 -291q91 -55 189 -55q176 0 290 158q56 90 56 188q0 177 -158 291 q-92 55 -188 55q-176 0 -291 -158q-56 -91 -56 -188zM612 492v3q0 31 139 38q129 0 161 -61l414 -424q0 -34 -93 -46l-49 -3q-119 0 -164 73q-408 412 -408 420z" />
<glyph unicode="R" horiz-adv-x="1304" d="M100 19v1121l5 6h786q89 0 195 -87q111 -111 111 -252q0 -174 -157 -287q-96 -57 -182 -57h-40q406 -407 406 -412v-5q0 -38 -133 -46q-118 0 -162 68l-607 604v-472q0 -79 -97 -151q-52 -33 -122 -33zM322 685h542q96 0 119 103l3 16q-20 117 -122 117h-542v-236z" />
<glyph unicode="S" horiz-adv-x="1356" d="M100 824q0 149 151 267q92 53 176 53h815q5 0 5 -8q0 -153 -153 -216q-36 -11 -77 -11h-565q-88 0 -113 -85l-3 -20q0 -101 116 -114h443q245 0 335 -230q23 -58 23 -139q0 -149 -151 -267q-92 -54 -176 -54h-815q-5 0 -5 9q0 153 153 215q36 12 77 12h565q88 0 113 85 l3 20q0 101 -116 113h-412q-272 0 -366 225q-23 71 -23 145z" />
<glyph unicode="T" horiz-adv-x="1301" d="M100 1145l3 2h1097q5 0 5 -8q0 -142 -142 -200q-33 -11 -72 -11h-224v-923l-5 -5h-208l-6 5v923h-234q-147 0 -203 143q-11 33 -11 74z" />
<glyph unicode="U" horiz-adv-x="1348" d="M100 523v616l6 6q156 0 216 -152q12 -33 12 -84v-343q0 -157 135 -268q92 -64 182 -64h31q152 0 262 149q53 84 53 166v360q0 167 152 225q36 11 76 11l6 -6v-565q0 -339 -318 -518q-126 -56 -247 -56q-190 0 -355 121q-155 144 -183 264q-27 73 -28 138z" />
<glyph unicode="V" horiz-adv-x="1271" d="M100 1116v3q27 26 125 26q101 0 139 -44l270 -821h4l274 833q41 32 139 32q84 0 121 -29v-3l-349 -1061q-27 -28 -114 -43l-75 -9q-192 16 -192 78z" />
<glyph unicode="W" horiz-adv-x="1875" d="M100 441v698q0 6 9 6q153 0 219 -158q11 -35 11 -88v-283q0 -225 30 -245q76 -132 210 -132q150 0 225 161q11 44 11 76v663q0 6 9 6q122 0 196 -108q38 -43 38 -138v-362q0 -181 87 -239q68 -59 152 -59q150 0 225 161q12 44 12 76v423q0 174 157 234q37 12 79 12l6 -6 v-526q0 -266 -41 -324q-68 -157 -225 -239q-99 -50 -207 -50h-12q-176 0 -324 128l-35 36q-145 -164 -347 -164h-12q-249 0 -406 234q-44 71 -67 207z" />
<glyph unicode="X" horiz-adv-x="1264" d="M100 54l371 515v6q-366 505 -371 521q39 48 202 48h38l289 -397h3q12 5 218 298l75 99h37q203 -8 203 -54v-3q-362 -499 -371 -524q34 -40 371 -515q-38 -48 -203 -48h-37q-62 77 -289 400q-17 -11 -292 -400h-42q-202 7 -202 54z" />
<glyph unicode="Y" horiz-adv-x="1300" d="M100 1085q0 49 110 62h67q74 0 104 -62l267 -329l318 382l53 9h67q80 0 110 -54l-436 -562v-303q0 -165 -151 -220q-35 -8 -76 -8l-3 3v528z" />
<glyph unicode="Z" horiz-adv-x="1201" d="M100 1093v45l5 5h911q72 0 120 -85q12 -30 12 -57v-5q0 -78 -107 -167l-620 -622h580q128 0 177 -127l5 -30v-45l-5 -5h-911q-72 0 -120 85q-12 30 -12 57v5q0 78 107 167l620 622h-580q-128 0 -177 127z" />
<glyph unicode="[" horiz-adv-x="758" />
<glyph unicode="\" horiz-adv-x="569" d="M-32 1053v3l2 12q34 78 77 78h18q17 0 46 -24q7 0 540 -936q31 -44 31 -69v-3l-2 -12q-34 -78 -77 -78h-18q-17 0 -46 24q-7 0 -540 937q-31 44 -31 68z" />
<glyph unicode="]" horiz-adv-x="758" />
<glyph unicode="^" d="M162 1195q408 408 420 408q50 20 80 20h24q94 0 236 -168l264 -264q-67 -48 -140 -48q-125 0 -260 164q-94 96 -112 96q-22 0 -148 -136q-111 -124 -224 -124q-83 0 -140 52z" />
<glyph unicode="_" horiz-adv-x="1024" d="M0 -100h1024v-60h-1024v60z" />
<glyph unicode="`" horiz-adv-x="1024" d="M212 1363q0 31 20.5 51t53.5 20q20 0 40.5 -12t55.5 -47l291 -296h-69l-330 202q-31 20 -46.5 40t-15.5 42z" />
<glyph unicode="a" horiz-adv-x="951" d="M60 224v37q0 186 205 239l49 4h377q0 88 -97 123q-44 8 -123 8h-239q-105 0 -165 112l-7 45v22l7 8h437q283 0 370 -225q15 -48 15 -93v-310q0 -139 -146 -190l-41 -4h-388q-136 0 -224 131q-30 51 -30 93zM250 250q0 -59 105 -63h280q56 5 56 56v74h-362q-67 0 -79 -59 v-8z" />
<glyph unicode="b" horiz-adv-x="899" d="M60 5v1133q0 5 7 5q131 0 183 -134q8 -25 8 -50v-126h190q135 0 271 -124q117 -130 117 -292q0 -187 -155 -322q-119 -95 -283 -95h-333zM258 198h176q92 0 166 95q38 57 38 126q0 125 -123 195q-46 22 -81 22h-176v-438z" />
<glyph unicode="c" horiz-adv-x="936" d="M60 406v34q0 207 224 342q81 38 152 38h452q11 -4 11 -23v-23q0 -106 -129 -151l-38 -4h-235q-152 0 -213 -144l-11 -42v-34q0 -126 155 -190l65 -8h239q120 0 163 -125l4 -23v-38l-15 -15h-403q-266 0 -402 289q-19 74 -19 117z" />
<glyph unicode="d" horiz-adv-x="940" d="M70 421q0 194 164 329q117 83 224 83h190v126q0 112 117 169q36 15 79 15l2 -3v-1135l-5 -5h-333q-276 0 -402 250q-36 84 -36 171zM268 414q0 -125 123 -195q46 -21 81 -21h176v438h-176q-92 0 -166 -96q-38 -57 -38 -126z" />
<glyph unicode="e" horiz-adv-x="991" d="M70 417q0 225 231 364q96 36 150 36h241q165 0 237 -189l7 -52q0 -206 -208 -263l-56 -7h-384v-3q86 -104 173 -104h237q139 0 183 -92q19 -35 19 -74v-17l-16 -16h-404q-247 0 -374 244q-36 80 -36 173zM295 501h361q78 0 78 75q0 27 -52 43h-212q-110 0 -175 -118z" />
<glyph unicode="f" horiz-adv-x="663" d="M60 599v37q0 81 98 144l27 10v213q0 114 110 144l32 2h332l5 -5v-9q0 -118 -125 -176q-36 -13 -83 -13h-46q-22 0 -22 -22v-127h215l5 -5v-31q0 -91 -108 -152q-39 -15 -88 -15h-24v-589l-5 -5h-193l-5 5v589h-120z" />
<glyph unicode="g" horiz-adv-x="914" d="M60 413q0 184 153 318q119 94 280 94h330l5 -5v-876q0 -127 -47 -179q-74 -85 -156 -85h-525l-5 5q0 130 128 181q28 10 70 10h285q47 0 54 42v82h-188q-134 0 -269 123q-115 129 -115 290zM256 410q0 -124 122 -193q45 -21 80 -21h174v433h-174q-91 0 -165 -94 q-37 -56 -37 -125z" />
<glyph unicode="h" horiz-adv-x="936" d="M70 5v1135q0 5 7 5q131 0 183 -133q8 -25 8 -50v-129h190q137 0 274 -126q114 -126 114 -300v-402l-5 -5h-188l-5 5v409q0 154 -159 214l-45 8h-176v-631l-5 -5h-188z" />
<glyph unicode="i" horiz-adv-x="396" d="M100 5v640q0 111 116 167q35 15 78 15l2 -3v-819l-5 -5h-186zM101 985v2q0 70 79 97l20 2q69 0 99 -81v-23q0 -79 -99 -96q-99 17 -99 99z" />
<glyph unicode="j" horiz-adv-x="501" d="M-79 -209q0 148 135 206q30 11 75 11h20q49 0 58 48v555q0 126 122 190q38 16 83 16l2 -3v-729q0 -144 -50 -203q-78 -96 -165 -96h-275zM218 984v3q0 73 81 100l21 2q72 0 103 -84v-23q0 -81 -103 -100q-102 18 -102 102z" />
<glyph unicode="k" horiz-adv-x="763" d="M70 8v1129l8 8h7q141 0 185 -169v-431l322 315h8q81 0 81 -122q0 -91 -66 -131l-180 -184l361 -365v-23q0 -30 -134 -35h-16q-90 0 -111 46l-265 261v-299l-8 -8h-184z" />
<glyph unicode="l" horiz-adv-x="402" d="M100 5v1137q0 4 7 4q139 0 195 -133q7 -25 7 -50v-958l-5 -5h-199z" />
<glyph unicode="m" horiz-adv-x="1337" d="M70 16v362q0 230 62 286q47 87 192 140l94 13q140 0 248 -107q92 107 238 107q194 0 306 -182q42 -94 42 -150v-462q0 -23 -23 -23h-13q-122 0 -166 147l-3 65v224q0 112 -52 144q-36 35 -85 35h-6q-95 0 -137 -110v-485l-20 -20h-172q-17 8 -17 26v427q0 113 -94 156 l-42 6h-7q-102 0 -137 -117l-3 -36v-446l-16 -16h-173z" />
<glyph unicode="n" horiz-adv-x="932" d="M70 16v389q0 261 248 382q85 33 164 33q143 0 271 -104q131 -135 131 -268v-432l-16 -16h-11q-132 0 -173 147v258q0 159 -156 213l-53 7q-140 0 -199 -155l-7 -74v-380l-16 -16h-167z" />
<glyph unicode="o" horiz-adv-x="936" d="M50 398v20q0 165 137 295q120 103 263 103h16q171 0 302 -141q98 -122 98 -251v-29q0 -153 -124 -281q-126 -114 -268 -114h-29q-140 0 -265 108q-130 130 -130 290zM244 413q0 -108 97 -177q56 -35 115 -35q108 0 177 97q35 55 35 115q0 108 -97 177q-56 35 -115 35 q-108 0 -177 -97q-35 -56 -35 -115z" />
<glyph unicode="p" horiz-adv-x="899" d="M70 -296v1110l5 5h325q270 0 393 -245q35 -82 35 -167q0 -189 -160 -321q-114 -81 -219 -81h-186v-124q0 -109 -114 -165q-35 -14 -77 -14zM263 198h172q90 0 163 93q37 55 37 123q0 122 -121 191q-44 21 -79 21h-172v-428z" />
<glyph unicode="q" horiz-adv-x="899" d="M70 412q0 183 152 315q117 93 277 93h326l5 -5v-1109q0 -5 -7 -5q-128 0 -180 131q-6 24 -6 48v124h-187q-132 0 -266 121q-114 128 -114 287zM263 410q0 -123 122 -191q44 -21 79 -21h173v429h-173q-90 0 -163 -94q-38 -56 -38 -123z" />
<glyph unicode="r" horiz-adv-x="634" d="M80 5v672q0 89 110 139l24 2h391q7 -2 7 -14v-19q0 -115 -124 -157q-10 -5 -38 -5h-136q-39 0 -39 -49v-569l-5 -5h-185z" />
<glyph unicode="s" horiz-adv-x="965" d="M60 584q0 133 153 216q50 19 98 19h549q26 -2 26 -23q0 -128 -141 -173l-32 -3h-395q-56 -7 -56 -52v-7q0 -46 56 -52h274q211 0 274 -153q23 -57 23 -118q0 -126 -137 -212q-53 -26 -108 -26h-564q-17 8 -17 26q0 121 128 163q12 7 35 7h386q59 0 75 42v26q-9 46 -66 46 h-274q-204 0 -274 173q-13 61 -13 101z" />
<glyph unicode="t" horiz-adv-x="652" d="M-10 637q0 132 128 183q31 10 65 10v309q0 5 7 5q130 0 183 -133q7 -25 7 -50v-131h188l5 -5q0 -132 -129 -183q-31 -9 -64 -9v-436h33q142 0 190 -128q10 -30 10 -64l-5 -5h-223q-147 0 -195 133q-7 25 -7 50v450h-188z" />
<glyph unicode="u" horiz-adv-x="965" d="M70 389v415q9 16 19 16q134 0 178 -130l3 -33v-210q0 -161 94 -215q48 -35 104 -35h14q143 0 199 162l3 46v245q0 120 128 164l59 6l13 -16v-409q0 -236 -252 -365q-82 -30 -147 -30h-10q-252 0 -378 255q-27 77 -27 134z" />
<glyph unicode="v" horiz-adv-x="947" d="M69 802v2q21 19 97 19q79 0 108 -31l210 -592h3l213 600q32 23 108 23q66 0 94 -21v-2l-271 -764q-21 -21 -89 -32l-58 -6q-149 11 -149 56z" />
<glyph unicode="w" horiz-adv-x="1290" d="M70 333v471q10 16 26 16q125 0 174 -134l6 -75v-228q0 -110 42 -135q37 -48 102 -48q97 0 137 117v470q0 33 29 33q109 0 167 -114q14 -26 14 -98v-242q0 -128 107 -160q0 -4 36 -6q91 0 134 104l7 55v288q0 129 150 170l39 3l16 -20v-356q0 -240 -69 -300 q-54 -92 -195 -134q-31 -10 -69 -10h-30q-117 0 -225 95l-6 16q-95 -111 -233 -111h-23q-191 0 -303 200q-33 88 -33 133z" />
<glyph unicode="x" horiz-adv-x="903" d="M42 34v41l256 338q-74 89 -256 339v37q27 34 139 34h71q17 -13 170 -218l26 -30q136 186 192 248h37q173 -4 173 -34v-41l-252 -338v-4l252 -335v-37q-27 -34 -139 -34h-71q-64 70 -192 248h-4l-188 -248h-49q-150 0 -165 34z" />
<glyph unicode="y" horiz-adv-x="914" d="M56 733v7q0 67 105 79h22q72 0 96 -72l162 -338h3l201 399l65 11h19q76 0 99 -72v-3q-5 -21 -369 -754q-157 -290 -183 -324q-31 -20 -59 -20q-96 8 -96 81q20 58 192 365l31 62q-288 569 -288 579z" />
<glyph unicode="z" horiz-adv-x="847" d="M20 790v3q0 19 16 27h629q96 0 114 -117q0 -73 -120 -167l-374 -358h380q110 0 138 -122v-40l-16 -16h-640q-66 0 -100 97l-3 27q0 65 157 194l337 321h-371q-104 0 -144 107z" />
<glyph unicode="{" />
<glyph unicode="|" />
<glyph unicode="}" />
<glyph unicode="~" d="M82 369v7l278 158h4l204 -158l269 169l51 -80v-7l-324 -204h-5l-206 160l-222 -127z" />
<glyph unicode="&#xa1;" horiz-adv-x="402" d="M100 -5v709q0 115 120 174q37 14 81 14l2 -2v-710q0 -115 -120 -173q-37 -15 -81 -15zM102 1008v25q0 63 74 90l27 3q64 0 93 -79v-31q-21 -86 -96 -86h-2q-68 0 -96 78z" />
<glyph unicode="&#xa2;" horiz-adv-x="1172" d="M100 565q0 159 101 298q121 130 223 153q61 23 115 23h518l4 -5q0 -131 -127 -181q-28 -9 -71 -9h-288q-131 0 -224 -114q-55 -77 -55 -154v-25q0 -128 125 -220q71 -45 140 -45h302q141 0 189 -127q9 -30 9 -64l-4 -5h-475q-284 0 -435 267q-47 106 -47 208zM302 35v4 q0 29 28 79q491 1075 497 1075q27 28 43 28h17q39 0 71 -90l2 -13v-4q0 -27 -29 -78q-491 -1076 -497 -1076q-27 -28 -43 -28h-16q-40 0 -72 90z" />
<glyph unicode="&#xa3;" />
<glyph unicode="&#xa4;" />
<glyph unicode="&#xa5;" horiz-adv-x="1301" d="M100 1085q0 49 110 62h67q74 0 104 -62l267 -329l318 382l53 9h67q80 0 110 -54l-436 -562v-303q0 -165 -151 -220q-35 -8 -76 -8l-3 3v528zM402 148v26q0 59 72 104q27 10 42 10h350l4 -4v-22q0 -64 -77 -107q-27 -11 -62 -11h-326zM402 416v26q0 59 72 103q27 10 42 10 h350l4 -3v-23q0 -64 -77 -107q-27 -10 -62 -10h-326z" />
<glyph unicode="&#xa6;" />
<glyph unicode="&#xa7;" />
<glyph unicode="&#xa8;" horiz-adv-x="836" d="M154 1017q0 55 60 80l27 5q54 0 79 -61q5 -9 5 -26q0 -65 -77 -84h-10q-70 0 -84 86zM511 1017q0 55 60 80l27 5q54 0 79 -61q5 -9 5 -26q0 -65 -77 -84h-10q-70 0 -84 86z" />
<glyph unicode="&#xa9;" horiz-adv-x="1330" d="M99 558v26q0 233 191 416q170 144 371 144h22q241 0 425 -199q137 -171 137 -351v-41q0 -215 -174 -394q-177 -161 -376 -161h-41q-197 0 -372 151q-183 183 -183 409zM194 571q0 -245 220 -404q126 -77 262 -77q245 0 403 220q78 125 78 261q0 246 -220 404 q-127 77 -261 77q-244 0 -404 -220q-78 -126 -78 -261zM300 566q0 107 68 200q81 87 149 103q41 15 78 15h347l3 -3q0 -88 -85 -122q-19 -6 -48 -6h-193q-88 0 -151 -77q-37 -51 -37 -103v-17q0 -86 85 -147q47 -31 93 -31h203q95 0 127 -85q6 -20 6 -43l-3 -3h-318 q-191 0 -292 179q-32 71 -32 140z" />
<glyph unicode="&#xaa;" horiz-adv-x="549" d="M107 881q0 73 67 101q22 8 49 8h154v2q0 40 -45 58q-15 4 -45 4h-109q-50 0 -68 46q-3 11 -3 23l2 2h180q74 0 108 -32q36 -27 50 -75l3 -20v-145q0 -27 -34 -55q-22 -14 -45 -14h-167q-52 0 -85 53q-12 23 -12 44zM177 884q0 -18 23 -28l12 -1h143q15 0 21 18l1 9v38 h-165q-32 0 -35 -36z" />
<glyph unicode="&#xab;" horiz-adv-x="800" d="M92 565v15q0 60 107 151l168 168q31 -43 31 -89q0 -81 -105 -166q-61 -60 -61 -71q0 -15 87 -94q79 -71 79 -144q0 -53 -33 -89q-260 260 -260 268q-13 32 -13 51zM392 565v15q0 60 107 151l168 168q31 -43 31 -89q0 -81 -105 -166q-61 -60 -61 -71q0 -15 87 -94 q79 -71 79 -144q0 -53 -33 -89q-260 260 -260 268q-13 32 -13 51z" />
<glyph unicode="&#xac;" d="M106 523q0 40 14 74q56 109 165 109h485l37 -4q103 -27 103 -126v-250l-5 -4h-9q-25 0 -49 6q-130 46 -130 184v9h-609z" />
<glyph unicode="&#xad;" horiz-adv-x="781" d="M100 548l1 2h484q73 0 110 -105q9 -32 9 -71l-1 -2h-484q-73 0 -110 105q-9 32 -9 71z" />
<glyph unicode="&#xae;" horiz-adv-x="1337" d="M99 558v26q0 233 191 416q170 144 371 144h22q241 0 425 -199q137 -171 137 -351v-41q0 -215 -174 -394q-177 -161 -376 -161h-41q-197 0 -372 151q-183 183 -183 409zM194 571q0 -245 220 -404q126 -77 262 -77q245 0 403 220q78 125 78 261q0 246 -220 404 q-127 77 -261 77q-244 0 -404 -220q-78 -126 -78 -261zM392 284v592l3 3h414q47 0 103 -46q59 -58 59 -133q0 -92 -83 -151q-51 -30 -96 -30h-21q214 -215 214 -218v-2q0 -20 -70 -25q-62 0 -86 36l-320 319v-249q0 -42 -51 -80q-27 -17 -64 -17zM509 636h286q51 0 63 54 l1 9q-10 61 -64 61h-286v-124z" />
<glyph unicode="&#xaf;" horiz-adv-x="1021" d="M0 1170v60h1024v-60h-1024z" />
<glyph unicode="&#xb0;" horiz-adv-x="549" d="M99 950v8q0 68 56 122q50 42 109 42h6q71 0 125 -58q40 -50 40 -103v-12q0 -63 -51 -116q-52 -47 -110 -47h-12q-58 0 -109 44q-54 54 -54 120zM170 954q0 -52 46 -86q27 -16 56 -16q51 0 85 47q16 26 16 55q0 52 -46 85q-27 16 -55 16q-52 0 -86 -46q-16 -27 -16 -55z " />
<glyph unicode="&#xb1;" horiz-adv-x="1050" d="M96 792l2 2h330v167q0 101 105 152q33 13 71 13l2 -2v-330h161q101 0 152 -105q13 -33 13 -71l-2 -2h-324v-161q0 -101 -105 -152q-32 -13 -71 -13l-2 2v324h-167q-101 0 -152 105q-13 32 -13 71zM100 208l2 2h669q101 0 152 -105q13 -32 13 -71l-2 -2h-669 q-101 0 -152 105q-13 32 -13 71z" />
<glyph unicode="&#xb2;" horiz-adv-x="601" d="M100 693v121q0 79 80 114q17 6 44 6h157q37 0 41 42q0 22 -27 33l-14 2h-200q-55 0 -77 54q-4 13 -4 28l1 1h289q61 0 101 -62q14 -27 14 -52q0 -87 -79 -121q-26 -8 -58 -8h-148q-24 0 -34 -20q-3 -7 -3 -17v-40h238q59 0 80 -54q4 -12 4 -27l-2 -2h-401z" />
<glyph unicode="&#xb3;" horiz-adv-x="601" d="M100 693v17q0 34 44 60q18 5 26 5h220q38 0 42 43q0 21 -27 33l-15 2h-156q-65 0 -84 43q-8 16 -8 29v6l2 2h246q38 0 42 42q0 22 -27 34l-15 2h-206q-61 0 -81 53q-3 11 -3 19v10l2 2h298q62 0 102 -63q14 -28 14 -53q0 -50 -28 -84v-1q28 -37 28 -73q0 -87 -80 -121 q-26 -9 -59 -9h-275z" />
<glyph unicode="&#xb4;" horiz-adv-x="615" d="M74 839v3q0 21 48 60q188 197 215 197q0 7 47 13h28q62 0 112 -65l3 -10v-3q0 -21 -48 -60q-188 -197 -215 -197q0 -7 -47 -13h-28q-62 0 -112 65z" />
<glyph unicode="&#xb5;" horiz-adv-x="998" d="M99 -238v660h192v-660h-192zM100 380v405q9 16 19 16q130 0 173 -127l3 -32v-205q0 -158 92 -210q47 -35 102 -35h13q140 0 195 159l3 45v239q0 117 125 160l57 6l13 -16v-399q0 -231 -246 -357q-80 -29 -144 -29h-9q-247 0 -370 249q-26 75 -26 131z" />
<glyph unicode="&#xb6;" horiz-adv-x="917" d="M100 921v14q0 121 126 190q43 19 83 19h317q146 0 195 -133q7 -25 7 -50v-956q0 -5 -7 -5q-131 0 -183 133q-7 25 -7 50v764h-103v-942q0 -5 -7 -5q-130 0 -183 133q-7 25 -7 50v528h-22q-134 0 -199 148q-10 38 -10 62z" />
<glyph unicode="&#xb7;" horiz-adv-x="402" d="M103 533q0 39 27.5 66.5t66.5 27.5t66.5 -27.5t27.5 -66.5t-27.5 -66.5t-66.5 -27.5t-66.5 27.5t-27.5 66.5z" />
<glyph unicode="&#xb8;" horiz-adv-x="1024" />
<glyph unicode="&#xb9;" horiz-adv-x="354" d="M100 1095v3l2 2h95q38 0 48 -38l2 -13v-285q0 -40 -42 -60q-13 -5 -28 -5h-1v330h-3q-53 0 -71 48q-2 9 -2 18z" />
<glyph unicode="&#xba;" horiz-adv-x="601" d="M99 894v10q0 81 67 145q60 51 130 51h8q84 0 149 -70q48 -60 48 -123v-14q0 -76 -61 -139q-62 -56 -132 -56h-14q-69 0 -131 53q-64 64 -64 143zM184 899q0 -62 55 -102q32 -20 67 -20q61 0 101 56q20 31 20 66q0 62 -55 102q-33 19 -66 19q-62 0 -102 -55 q-20 -32 -20 -66z" />
<glyph unicode="&#xbb;" horiz-adv-x="944" d="M103 333q0 73 77 144q85 79 85 94q0 11 -59 71q-103 85 -103 166q0 46 30 89l164 -168q105 -91 105 -151v-15q0 -19 -12 -51q-1 -8 -255 -268q-32 36 -32 89zM397 333q0 73 77 144q85 79 85 94q0 11 -60 71q-102 85 -102 166q0 46 30 89l164 -168q105 -91 105 -151v-15 q0 -19 -12 -51q-1 -8 -255 -268q-32 36 -32 89z" />
<glyph unicode="&#xbc;" horiz-adv-x="1708" />
<glyph unicode="&#xbd;" horiz-adv-x="1964" />
<glyph unicode="&#xbe;" horiz-adv-x="1708" />
<glyph unicode="&#xbf;" horiz-adv-x="1201" d="M101 274q0 208 187 289q61 21 137 21h313v308l5 5h36q82 0 141 -101q15 -37 15 -63v-195q0 -80 -104 -142q-39 -12 -59 -12h-378q-88 0 -97 -101q0 -51 64 -79l33 -5h482q143 0 189 -127q7 -26 7 -43v-24l-5 -5h-694q-146 0 -239 149q-33 66 -33 125zM738 1036 q0 65 76 84h10q69 0 83 -86q0 -55 -59 -80l-27 -5q-53 0 -78 61q-5 9 -5 26z" />
<glyph unicode="&#xc0;" horiz-adv-x="1540" />
<glyph unicode="&#xc1;" horiz-adv-x="1271" d="M100 5v594q0 322 302 491q119 54 235 54q180 0 337 -115q148 -137 174 -251q26 -72 26 -131v-642l-5 -5q-148 0 -206 144q-10 32 -10 81v130h-631v-130q0 -159 -144 -214q-34 -11 -73 -11zM322 577h631v43q0 148 -129 254q-88 61 -173 61h-30q-144 0 -248 -141 q-51 -80 -51 -158v-59zM529 1313v2q0 16 35 44q138 144 158 144q0 6 34 10h21q45 0 82 -48l2 -7v-2q0 -16 -35 -44q-138 -144 -158 -144q0 -6 -34 -10h-21q-45 0 -82 48z" />
<glyph unicode="&#xc2;" horiz-adv-x="1540" />
<glyph unicode="&#xc3;" horiz-adv-x="1540" />
<glyph unicode="&#xc4;" horiz-adv-x="1540" />
<glyph unicode="&#xc5;" horiz-adv-x="1540" />
<glyph unicode="&#xc6;" horiz-adv-x="2118" />
<glyph unicode="&#xc7;" horiz-adv-x="1399" />
<glyph unicode="&#xc8;" horiz-adv-x="1151" />
<glyph unicode="&#xc9;" horiz-adv-x="1356" d="M100 572q0 192 122 359q146 157 268 185q74 27 139 28h624l5 -6q0 -158 -153 -219q-34 -11 -86 -11h-347q-181 0 -293 -171q-23 -44 -23 -54h726l6 -6q0 -158 -154 -219q-34 -11 -85 -11h-490q46 -114 157 -174q74 -37 139 -37h364q170 0 228 -153q11 -36 11 -77l-5 -6 h-572q-343 0 -524 322q-57 127 -57 250zM529 1313v2q0 16 35 44q138 144 158 144q0 6 34 10h21q45 0 82 -48l2 -7v-2q0 -16 -35 -44q-138 -144 -158 -144q0 -6 -34 -10h-21q-45 0 -82 48z" />
<glyph unicode="&#xca;" horiz-adv-x="1151" />
<glyph unicode="&#xcb;" horiz-adv-x="1151" />
<glyph unicode="&#xcc;" horiz-adv-x="657" />
<glyph unicode="&#xcd;" horiz-adv-x="501" d="M129 1313v2q0 16 35 44q138 144 158 144q0 6 34 10h21q45 0 82 -48l2 -7v-2q0 -16 -35 -44q-138 -144 -158 -144q0 -6 -34 -10h-21q-45 0 -82 48zM150 2v959q0 112 128 169q40 14 86 14l3 -2v-959q0 -112 -128 -169q-39 -14 -86 -14z" />
<glyph unicode="&#xce;" horiz-adv-x="657" />
<glyph unicode="&#xcf;" horiz-adv-x="657" />
<glyph unicode="&#xd0;" horiz-adv-x="1518" />
<glyph unicode="&#xd1;" horiz-adv-x="1326" d="M100 6v567q0 340 319 520q126 56 249 56q190 0 355 -121q156 -145 184 -266q28 -75 28 -138v-618l-6 -6q-156 0 -217 152q-11 34 -11 85v345q0 156 -136 268q-93 65 -183 65h-31q-153 0 -263 -150q-54 -85 -54 -166v-362q0 -168 -152 -226q-35 -11 -76 -11zM329 1331v5 l223 127h4l164 -127l216 136l41 -64v-6l-260 -164h-4l-166 129l-179 -102z" />
<glyph unicode="&#xd2;" horiz-adv-x="1614" />
<glyph unicode="&#xd3;" horiz-adv-x="1356" d="M99 558v26q0 233 191 416q170 144 371 144h22q241 0 425 -199q137 -171 137 -351v-41q0 -215 -174 -394q-177 -161 -376 -161h-41q-197 0 -372 151q-183 183 -183 409zM341 570q0 -176 158 -291q91 -55 189 -55q176 0 290 158q56 90 56 188q0 177 -158 291 q-92 55 -188 55q-176 0 -291 -158q-56 -91 -56 -188zM599 1313v2q0 16 35 44q138 144 158 144q0 6 34 10h21q45 0 82 -48l2 -7v-2q0 -16 -35 -44q-138 -144 -158 -144q0 -6 -34 -10h-21q-45 0 -82 48z" />
<glyph unicode="&#xd4;" horiz-adv-x="1614" />
<glyph unicode="&#xd5;" horiz-adv-x="1614" />
<glyph unicode="&#xd6;" horiz-adv-x="1614" />
<glyph unicode="&#xd7;" />
<glyph unicode="&#xd8;" horiz-adv-x="1614" />
<glyph unicode="&#xd9;" horiz-adv-x="1501" />
<glyph unicode="&#xda;" horiz-adv-x="1330" d="M100 523v616l6 6q156 0 216 -152q12 -33 12 -84v-343q0 -157 135 -268q92 -64 182 -64h31q152 0 262 149q53 84 53 166v360q0 167 152 225q36 11 76 11l6 -6v-565q0 -339 -318 -518q-126 -56 -247 -56q-190 0 -355 121q-155 144 -183 264q-27 73 -28 138zM529 1313v2 q0 16 35 44q138 144 158 144q0 6 34 10h21q45 0 82 -48l2 -7v-2q0 -16 -35 -44q-138 -144 -158 -144q0 -6 -34 -10h-21q-45 0 -82 48z" />
<glyph unicode="&#xdb;" horiz-adv-x="1501" />
<glyph unicode="&#xdc;" horiz-adv-x="1334" d="M100 523v616l6 6q156 0 216 -152q12 -33 12 -84v-343q0 -157 135 -268q92 -64 182 -64h31q152 0 262 149q53 84 53 166v360q0 167 152 225q36 11 76 11l6 -6v-565q0 -339 -318 -518q-126 -56 -247 -56q-190 0 -355 121q-155 144 -183 264q-27 73 -28 138zM376 1259 q0 35 24.5 59.5t60.5 24.5q35 0 59.5 -24.5t24.5 -59.5t-24.5 -60t-59.5 -25q-36 0 -60.5 25t-24.5 60zM786 1259q0 35 24.5 59.5t60.5 24.5q35 0 59.5 -24.5t24.5 -59.5t-24.5 -60t-59.5 -25q-36 0 -60.5 25t-24.5 60z" />
<glyph unicode="&#xdd;" horiz-adv-x="1233" />
<glyph unicode="&#xde;" horiz-adv-x="1120" />
<glyph unicode="&#xdf;" horiz-adv-x="1348" d="M100 6v1130l6 6h732q176 0 289 -178q40 -79 40 -149q0 -119 -48 -186q134 -117 134 -260q0 -248 -226 -343q-74 -26 -166 -26h-277q-147 0 -204 146l-5 34v138l5 5h226l6 -5v-43q9 -38 37 -38h249q107 0 118 121q0 61 -78 94l-40 6h-209q-164 0 -220 146l-6 45v29l6 6 h343q107 0 118 120q0 61 -78 94l-40 6h-475v-687q0 -144 -160 -211l-46 -6h-25z" />
<glyph unicode="&#xe0;" horiz-adv-x="922" />
<glyph unicode="&#xe1;" horiz-adv-x="958" d="M60 224v37q0 186 205 239l49 4h377q0 88 -97 123q-44 8 -123 8h-239q-105 0 -165 112l-7 45v22l7 8h437q283 0 370 -225q15 -48 15 -93v-310q0 -139 -146 -190l-41 -4h-388q-136 0 -224 131q-30 51 -30 93zM250 250q0 -59 105 -63h280q56 5 56 56v74h-362q-67 0 -79 -59 v-8zM339 993v2q0 16 35 44q138 144 158 144q0 6 34 10h21q45 0 82 -48l2 -7v-2q0 -16 -35 -44q-138 -144 -158 -144q0 -6 -34 -10h-21q-45 0 -82 48z" />
<glyph unicode="&#xe2;" horiz-adv-x="922" />
<glyph unicode="&#xe3;" horiz-adv-x="922" />
<glyph unicode="&#xe4;" horiz-adv-x="922" />
<glyph unicode="&#xe5;" horiz-adv-x="922" />
<glyph unicode="&#xe6;" horiz-adv-x="1454" />
<glyph unicode="&#xe7;" horiz-adv-x="905" />
<glyph unicode="&#xe8;" horiz-adv-x="909" />
<glyph unicode="&#xe9;" horiz-adv-x="987" d="M50 417q0 225 231 364q96 36 150 36h241q165 0 237 -189l7 -52q0 -206 -208 -263l-56 -7h-384v-3q86 -104 173 -104h237q139 0 183 -92q19 -35 19 -74v-17l-16 -16h-404q-247 0 -374 244q-36 80 -36 173zM275 501h361q78 0 78 75q0 27 -52 43h-212q-110 0 -175 -118z M399 993v2q0 16 35 44q138 144 158 144q0 6 34 10h21q45 0 82 -48l2 -7v-2q0 -16 -35 -44q-138 -144 -158 -144q0 -6 -34 -10h-21q-45 0 -82 48z" />
<glyph unicode="&#xea;" horiz-adv-x="909" />
<glyph unicode="&#xeb;" horiz-adv-x="909" />
<glyph unicode="&#xec;" horiz-adv-x="514" />
<glyph unicode="&#xed;" horiz-adv-x="442" d="M39 993v2q0 16 35 44q138 144 158 144q0 6 34 10h21q45 0 82 -48l2 -7v-2q0 -16 -35 -44q-138 -144 -158 -144q0 -6 -34 -10h-21q-45 0 -82 48zM100 5v640q0 111 116 167q35 15 78 15l2 -3v-819l-5 -5h-186z" />
<glyph unicode="&#xee;" horiz-adv-x="514" />
<glyph unicode="&#xef;" horiz-adv-x="514" />
<glyph unicode="&#xf0;" horiz-adv-x="1139" />
<glyph unicode="&#xf1;" horiz-adv-x="962" d="M70 16v380q0 255 243 374q83 32 160 32q140 0 265 -102q128 -132 128 -262v-422l-16 -16h-10q-129 0 -169 144v252q0 156 -153 208l-52 7q-137 0 -195 -151l-6 -73v-371l-16 -16h-163zM159 988v5l223 127h4l164 -127l216 136l41 -64v-6l-260 -164h-4l-166 129l-179 -102z " />
<glyph unicode="&#xf2;" horiz-adv-x="1010" />
<glyph unicode="&#xf3;" horiz-adv-x="962" d="M60 398v20q0 165 137 295q120 103 263 103h16q171 0 302 -141q98 -122 98 -251v-29q0 -153 -124 -281q-126 -114 -268 -114h-29q-140 0 -265 108q-130 130 -130 290zM254 413q0 -108 97 -177q56 -35 115 -35q108 0 177 97q35 55 35 115q0 108 -97 177q-56 35 -115 35 q-108 0 -177 -97q-35 -56 -35 -115zM329 993v2q0 16 35 44q138 144 158 144q0 6 34 10h21q45 0 82 -48l2 -7v-2q0 -16 -35 -44q-138 -144 -158 -144q0 -6 -34 -10h-21q-45 0 -82 48z" />
<glyph unicode="&#xf4;" horiz-adv-x="1010" />
<glyph unicode="&#xf5;" horiz-adv-x="1010" />
<glyph unicode="&#xf6;" horiz-adv-x="1010" />
<glyph unicode="&#xf7;" horiz-adv-x="1043" d="M92 801l2 2h688q104 0 157 -108q13 -33 13 -73l-2 -2h-688q-104 0 -157 108q-13 33 -13 73zM408 383q0 46 33 79t80 33q46 0 79 -33t33 -79q0 -47 -33 -80t-79 -33q-47 0 -80 33t-33 80zM408 1043q0 46 33 79t80 33q46 0 79 -33t33 -79q0 -47 -33 -80t-79 -33 q-47 0 -80 33t-33 80z" />
<glyph unicode="&#xf8;" horiz-adv-x="1010" />
<glyph unicode="&#xf9;" horiz-adv-x="1059" />
<glyph unicode="&#xfa;" horiz-adv-x="951" d="M70 389v415q9 16 19 16q134 0 178 -130l3 -33v-210q0 -161 94 -215q48 -35 104 -35h14q143 0 199 162l3 46v245q0 120 128 164l59 6l13 -16v-409q0 -236 -252 -365q-82 -30 -147 -30h-10q-252 0 -378 255q-27 77 -27 134zM339 993v2q0 16 35 44q138 144 158 144 q0 6 34 10h21q45 0 82 -48l2 -7v-2q0 -16 -35 -44q-138 -144 -158 -144q0 -6 -34 -10h-21q-45 0 -82 48z" />
<glyph unicode="&#xfb;" horiz-adv-x="1059" />
<glyph unicode="&#xfc;" horiz-adv-x="954" d="M70 390v417q9 16 20 16q133 0 177 -130l3 -33v-211q0 -162 95 -216q48 -36 105 -36h13q144 0 200 164l3 46v245q0 121 129 165l58 6l14 -16v-410q0 -238 -253 -367q-82 -30 -148 -30h-9q-254 0 -380 256q-27 77 -27 134zM260 1048q0 29 20.5 49.5t49.5 20.5t49.5 -20.5 t20.5 -49.5t-20.5 -49.5t-49.5 -20.5t-49.5 20.5t-20.5 49.5zM580 1048q0 29 20.5 49.5t49.5 20.5t49.5 -20.5t20.5 -49.5t-20.5 -49.5t-49.5 -20.5t-49.5 20.5t-20.5 49.5z" />
<glyph unicode="&#xfd;" horiz-adv-x="868" />
<glyph unicode="&#xfe;" horiz-adv-x="1010" />
<glyph unicode="&#xff;" horiz-adv-x="868" />
<glyph unicode="&#x2c6;" horiz-adv-x="1024" d="M221 1079l232 355h118l232 -355h-58l-233 216l-233 -216h-58z" />
<glyph unicode="&#x2dc;" horiz-adv-x="1024" d="M234 1132q19 106 68 158.5t129 52.5q46 -1 113 -24q64 -23 112 -23h4q36 0 58 20t36 66h54q-20 -103 -68.5 -154t-126.5 -51h-4q-50 0 -113 23q-66 24 -114 24q-39 0 -60.5 -20.5t-33.5 -71.5h-54z" />
<glyph unicode="&#x2000;" horiz-adv-x="811" />
<glyph unicode="&#x2001;" horiz-adv-x="1623" />
<glyph unicode="&#x2002;" horiz-adv-x="811" />
<glyph unicode="&#x2003;" horiz-adv-x="1623" />
<glyph unicode="&#x2004;" horiz-adv-x="541" />
<glyph unicode="&#x2005;" horiz-adv-x="405" />
<glyph unicode="&#x2006;" horiz-adv-x="270" />
<glyph unicode="&#x2007;" horiz-adv-x="270" />
<glyph unicode="&#x2008;" horiz-adv-x="202" />
<glyph unicode="&#x2009;" horiz-adv-x="324" />
<glyph unicode="&#x200a;" horiz-adv-x="90" />
<glyph unicode="&#x2010;" horiz-adv-x="781" d="M100 548l1 2h484q73 0 110 -105q9 -32 9 -71l-1 -2h-484q-73 0 -110 105q-9 32 -9 71z" />
<glyph unicode="&#x2011;" horiz-adv-x="781" d="M100 548l1 2h484q73 0 110 -105q9 -32 9 -71l-1 -2h-484q-73 0 -110 105q-9 32 -9 71z" />
<glyph unicode="&#x2012;" horiz-adv-x="781" d="M100 548l1 2h484q73 0 110 -105q9 -32 9 -71l-1 -2h-484q-73 0 -110 105q-9 32 -9 71z" />
<glyph unicode="&#x2013;" horiz-adv-x="1108" d="M56 419v120h996v-120h-996z" />
<glyph unicode="&#x2014;" horiz-adv-x="2048" d="M0 419v120h2048v-120h-2048z" />
<glyph unicode="&#x2018;" horiz-adv-x="557" d="M186 1233q0 109 71 226.5t139 117.5v-43q-73 -43 -87 -190q0 -119 129 -161v-42l-119 -125q-44 0 -88.5 65.5t-44.5 151.5z" />
<glyph unicode="&#x2019;" horiz-adv-x="557" d="M119 1410v42l119 125q44 0 88.5 -65.5t44.5 -151.5q0 -109 -71 -226.5t-139 -117.5v43q73 43 87 190q0 119 -129 161z" />
<glyph unicode="&#x201a;" horiz-adv-x="557" d="M119 114v42l119 125q44 0 88.5 -65.5t44.5 -151.5q0 -109 -71 -226.5t-139 -117.5v43q73 43 87 190q0 119 -129 161z" />
<glyph unicode="&#x201c;" horiz-adv-x="910" d="M186 1233q0 109 71 226.5t139 117.5v-43q-73 -43 -87 -190q0 -119 129 -161v-42l-119 -125q-44 0 -88.5 65.5t-44.5 151.5zM539 1233q0 109 71 226.5t139 117.5v-43q-73 -43 -87 -190q0 -119 129 -161v-42l-119 -125q-44 0 -88.5 65.5t-44.5 151.5z" />
<glyph unicode="&#x201d;" horiz-adv-x="910" d="M119 1410v42l119 125q44 0 88.5 -65.5t44.5 -151.5q0 -109 -71 -226.5t-139 -117.5v43q73 43 87 190q0 119 -129 161zM472 1410v42l119 125q44 0 88.5 -65.5t44.5 -151.5q0 -109 -71 -226.5t-139 -117.5v43q73 43 87 190q0 119 -129 161z" />
<glyph unicode="&#x201e;" horiz-adv-x="910" d="M119 114v42l119 125q44 0 88.5 -65.5t44.5 -151.5q0 -109 -71 -226.5t-139 -117.5v43q73 43 87 190q0 119 -129 161zM472 114v42l119 125q44 0 88.5 -65.5t44.5 -151.5q0 -109 -71 -226.5t-139 -117.5v43q73 43 87 190q0 119 -129 161z" />
<glyph unicode="&#x2022;" horiz-adv-x="1024" d="M216 718q0 123 87 209t210 86q122 0 208.5 -86.5t86.5 -208.5t-87.5 -209.5t-209.5 -87.5q-123 0 -209 87t-86 210z" />
<glyph unicode="&#x2026;" horiz-adv-x="2048" d="M129 136q0 15 16 31l82 84q15 14 29 14q13 0 31 -16l80 -86q12 -16 12 -29q0 -15 -14 -31l-80 -88q-20 -20 -29 -20q-16 0 -29 14l-88 101q-10 13 -10 26zM812 136q0 15 16 31l82 84q15 14 29 14q13 0 31 -16l80 -86q12 -16 12 -29q0 -15 -14 -31l-80 -88 q-20 -20 -29 -20q-16 0 -29 14l-88 101q-10 13 -10 26zM1495 136q0 15 16 31l82 84q15 14 29 14q13 0 31 -16l80 -86q12 -16 12 -29q0 -15 -14 -31l-80 -88q-20 -20 -29 -20q-16 0 -29 14l-88 101q-10 13 -10 26z" />
<glyph unicode="&#x202f;" horiz-adv-x="324" />
<glyph unicode="&#x2039;" horiz-adv-x="631" d="M174 479l342 303h14v-37l-205 -266l205 -266v-37h-14z" />
<glyph unicode="&#x203a;" horiz-adv-x="631" d="M101 176v37l205 266l-205 266v37h14l342 -303l-342 -303h-14z" />
<glyph unicode="&#x205f;" horiz-adv-x="405" />
<glyph unicode="&#x20ac;" d="M-44 653l17 60h87v29q0 16 1 31h-71l17 60h58q14 145 76 281q81 178 226 274t298 96q43 0 87 -8q40 -10 82 -29q8 -6 16 -6q20 0 34 45h41l84 -281l-40 -1q-49 134 -138 178q-43 22 -81 32v3q-50 16 -101 16q-17 0 -34 -2q-120 -12 -226 -113.5t-157 -273.5 q-32 -104 -39 -211h706l-17 -60h-692q0 -30 2 -60h674l-17 -60h-652q17 -158 83 -298q74 -157 193 -236q102 -68 216 -69q186 3 256 91q74 91 74 185h48v-143q0 -70 -111 -127q-105 -54 -267 -56q-181 0 -325.5 98t-223.5 274q-62 135 -76 281h-108z" />
<glyph unicode="&#x2122;" horiz-adv-x="1304" d="M70 1301l1 1h455q2 0 2 -4q0 -58 -59 -83q-14 -4 -30 -4h-93v-383l-2 -2h-86l-2 2v383h-97q-61 0 -84 59q-5 14 -5 31zM500 826v222q0 112 17 137q29 66 95 101q42 21 88 21h4q75 0 137 -54l15 -15q61 69 147 69h5q105 0 171 -98q19 -31 29 -88v-295q0 -3 -4 -3 q-65 0 -92 67q-5 15 -5 37v120q0 95 -13 103q-32 56 -88 56q-64 0 -95 -68q-5 -19 -5 -32v-179q0 -73 -67 -98q-15 -6 -33 -6l-3 3v254q0 77 -37 101q-29 25 -64 25q-64 0 -95 -68q-5 -19 -5 -32v-179q0 -73 -66 -98q-16 -6 -34 -6z" />
<glyph unicode="&#x25fc;" horiz-adv-x="825" d="M0 0v825h825v-825h-825z" />
</font>
</defs>
</svg>
